<svg width="400" height="400" viewBox="0 0 400 400" fill="none" xmlns="http://www.w3.org/2000/svg">
<path fill-rule="evenodd" clip-rule="evenodd" d="M208.826 327.822L208.825 255.643L208.66 251.728L208.494 247.813L208.236 244.065L207.978 240.317L207.575 236.318L207.172 232.32L206.744 229.155L206.316 225.989L205.814 222.99L205.312 219.992L204.66 216.743L204.008 213.494L203.178 210.162L202.348 206.83L201.771 204.881L201.193 202.931L201.083 202.548L200.973 202.166L202.509 204.915L204.044 207.663L205.629 210.246L207.215 212.828L209.205 215.797L211.195 218.767L213.243 221.579L215.291 224.392L217.342 227.023L219.394 229.654L222.245 233.07L225.096 236.485L227.328 238.983L229.559 241.481L231.96 244.064L234.362 246.647L284.79 297.126L335.218 347.605L341.422 341.398L347.627 335.191L297.169 284.742L246.711 234.293L244.129 231.89L241.547 229.488L239.05 227.256L236.553 225.024L233.139 222.171L229.725 219.319L227.095 217.266L224.465 215.214L221.654 213.165L218.842 211.116L215.874 209.125L212.906 207.135L210.325 205.548L207.744 203.962L204.996 202.426L202.248 200.89L202.631 201L203.013 201.11L204.962 201.688L206.911 202.266L210.241 203.096L213.572 203.926L216.819 204.579L220.067 205.231L223.064 205.733L226.062 206.236L229.226 206.663L232.39 207.091L236.386 207.495L240.383 207.898L244.13 208.156L247.877 208.414L251.79 208.58L255.704 208.746L327.852 208.746L400 208.746V200V191.254L329.017 191.255L258.035 191.257L253.539 191.419L249.042 191.582L246.128 191.759L243.214 191.935L239.467 192.265L235.72 192.594L231.64 193.093L227.56 193.591L223.48 194.265L219.4 194.939L216.153 195.608L212.906 196.277L209.409 197.17L205.912 198.062L204.038 198.636L202.165 199.209V199.148V199.087L203.455 198.438L204.746 197.788L207.366 196.272L209.987 194.756L212.718 193.004L215.45 191.252L218.008 189.481L220.566 187.71L223.135 185.796L225.705 183.882L227.632 182.374L229.559 180.866L232.889 178.089L236.22 175.312L238.801 173.017L241.382 170.721L244.879 167.42L248.376 164.119L298.001 114.463L347.626 64.807L341.466 58.643L335.307 52.4791L286.789 101L238.272 149.521L235.164 152.694L232.057 155.866L229.63 158.524L227.204 161.183L224.966 163.765L222.728 166.347L220.894 168.596L219.059 170.845L217.293 173.095L215.528 175.344L213.403 178.259L211.278 181.174L208.789 184.915L206.3 188.656L204.715 191.314L203.13 193.972L201.967 196.153L200.803 198.334L200.912 198.001L201.022 197.668L201.604 195.752L202.187 193.836L202.997 190.65L203.807 187.465L204.474 184.236L205.14 181.008L205.807 177.01L206.475 173.011L206.977 169.013L207.478 165.015L207.812 161.266L208.146 157.518L208.319 154.852L208.493 152.187L208.659 148.272L208.825 144.357L208.826 72.1783L208.826 0H200.078H191.33L191.391 74.1774L191.451 148.355L191.643 151.187L191.836 154.019L192.098 157.518L192.36 161.016L192.685 164.182L193.011 167.347L193.431 170.512L193.851 173.678L194.421 177.093L194.992 180.508L195.672 183.84L196.352 187.172L197.196 190.504L198.04 193.836L198.604 195.696L199.167 197.557L199.266 197.862L199.364 198.167L198.424 196.436L197.485 194.705L196.467 192.937L195.449 191.17L194.202 189.171L192.954 187.172L191.126 184.435L189.298 181.698L187.794 179.604L186.289 177.509L184.796 175.529L183.303 173.549L181.01 170.677L178.717 167.806L176.167 164.83L173.616 161.855L171.279 159.274L168.943 156.694L164.586 152.191L160.229 147.688L112.587 100.042L64.946 52.3952L58.743 58.6009L52.5399 64.8065L100.167 112.468L147.794 160.129L152.294 164.488L156.796 168.846L159.375 171.184L161.954 173.522L164.928 176.073L167.902 178.625L170.773 180.919L173.643 183.212L175.623 184.706L177.602 186.2L179.696 187.705L181.789 189.21L184.525 191.039L187.261 192.867L189.259 194.116L191.257 195.364L193.024 196.382L194.79 197.4L196.521 198.341L198.251 199.28L197.946 199.182L197.641 199.084L195.781 198.52L193.922 197.956L190.591 197.112L187.261 196.267L183.93 195.587L180.6 194.906L177.186 194.337L173.772 193.767L171.274 193.431L168.776 193.095L165.779 192.763L162.781 192.43L159.784 192.179L156.786 191.928L154.038 191.756L151.291 191.584L146.711 191.421L142.132 191.258L71.0658 191.256L0 191.254V200V208.746L72.2315 208.746L144.463 208.746L148.376 208.579L152.29 208.413L154.954 208.241L157.619 208.068L161.282 207.739L164.946 207.409L169.026 206.902L173.106 206.395L177.102 205.727L181.099 205.059L184.326 204.392L187.553 203.725L190.738 202.915L193.922 202.105L195.837 201.522L197.752 200.939L198.085 200.829L198.418 200.72L196.238 201.884L194.058 203.048L191.401 204.634L188.744 206.219L185.005 208.709L181.266 211.199L178.351 213.325L175.437 215.451L173.189 217.217L170.941 218.984L168.693 220.819L166.445 222.654L163.863 224.893L161.282 227.132L158.625 229.559L155.968 231.987L152.796 235.096L149.625 238.205L101.125 286.742L52.6238 335.28L58.7852 341.442L64.9466 347.604L114.582 297.959L164.217 248.313L167.517 244.815L170.816 241.316L173.111 238.734L175.406 236.152L178.182 232.82L180.957 229.488L182.464 227.56L183.972 225.632L185.885 223.062L187.798 220.491L189.568 217.932L191.339 215.373L193.09 212.64L194.842 209.908L196.357 207.286L197.872 204.665L198.522 203.374L199.171 202.082H199.232H199.293L198.719 203.957L198.146 205.831L197.254 209.329L196.362 212.828L195.693 216.077L195.024 219.325L194.351 223.407L193.677 227.489L193.179 231.57L192.681 235.652L192.351 239.4L192.022 243.149L191.845 246.064L191.668 248.98L191.506 253.478L191.344 257.976L191.342 328.988L191.341 400H200.083H208.826L208.826 327.822ZM200.833 201.999V201.916H200.916H200.999V201.999V202.082H200.916H200.833V201.999ZM199.334 201.666V201.583H199.417H199.5V201.666V201.749H199.417H199.334V201.666ZM201.998 200.833V200.75H202.082H202.165V200.833V200.916H202.082H201.998V200.833ZM201.665 199.334V199.25H201.749H201.832V199.334V199.417H201.749H201.665V199.334ZM198.335 199.334V199.25H198.418H198.501V199.334V199.417H198.418H198.335V199.334ZM199.334 198.334V198.251H199.417H199.5V198.334V198.417H199.417H199.334V198.334Z" fill="white"/>
</svg>
